ffmpeg version 3.4.6-0ubuntu0.18.04.1 Copyright (c) 2000-2019 the FFmpeg developers
  built with gcc 7 (Ubuntu 7.3.0-16ubuntu3)
  configuration: --prefix=/usr --extra-version=0ubuntu0.18.04.1 --toolchain=hardened --libdir=/usr/lib/x86_64-linux-gnu --incdir=/usr/include/x86_64-linux-gnu --enable-gpl --disable-stripping --enable-avresample --enable-avisynth --enable-gnutls --enable-ladspa --enable-libass --enable-libbluray --enable-libbs2b --enable-libcaca --enable-libcdio --enable-libflite --enable-libfontconfig --enable-libfreetype --enable-libfribidi --enable-libgme --enable-libgsm --enable-libmp3lame --enable-libmysofa --enable-libopenjpeg --enable-libopenmpt --enable-libopus --enable-libpulse --enable-librubberband --enable-librsvg --enable-libshine --enable-libsnappy --enable-libsoxr --enable-libspeex --enable-libssh --enable-libtheora --enable-libtwolame --enable-libvorbis --enable-libvpx --enable-libwavpack --enable-libwebp --enable-libx265 --enable-libxml2 --enable-libxvid --enable-libzmq --enable-libzvbi --enable-omx --enable-openal --enable-opengl --enable-sdl2 --enable-libdc1394 --enable-libdrm --enable-libiec61883 --enable-chromaprint --enable-frei0r --enable-libopencv --enable-libx264 --enable-shared
  libavutil      55. 78.100 / 55. 78.100
  libavcodec     57.107.100 / 57.107.100
  libavformat    57. 83.100 / 57. 83.100
  libavdevice    57. 10.100 / 57. 10.100
  libavfilter     6.107.100 /  6.107.100
  libavresample   3.  7.  0 /  3.  7.  0
  libswscale      4.  8.100 /  4.  8.100
  libswresample   2.  9.100 /  2.  9.100
  libpostproc    54.  7.100 / 54.  7.100
Guessed Channel Layout for Input Stream #0.0 : stereo
Input #0, s32le, from 'pipe:':
  Duration: N/A, bitrate: 2822 kb/s
    Stream #0:0: Audio: pcm_s32le, 44100 Hz, stereo, s32, 2822 kb/s
Stream mapping:
  Stream #0:0 -> #0:0 (pcm_s32le (native) -> aac (native))
Output #0, ipod, to 'temp-audio.m4a':
  Metadata:
    encoder         : Lavf57.83.100
    Stream #0:0: Audio: aac (LC) (mp4a / 0x6134706D), 44100 Hz, stereo, fltp, 128 kb/s
    Metadata:
      encoder         : Lavc57.107.100 aac
size=       0kB time=00:00:12.05 bitrate=   0.0kbits/s speed=23.9x    size=     256kB time=00:00:29.55 bitrate=  71.0kbits/s speed=29.4x    size=     512kB time=00:00:44.51 bitrate=  94.2kbits/s speed=29.6x    size=     768kB time=00:01:01.30 bitrate= 102.6kbits/s speed=30.6x    size=    1280kB time=00:01:21.43 bitrate= 128.8kbits/s speed=32.5x    size=    1466kB time=00:01:30.00 bitrate= 133.4kbits/s speed=33.6x    
video:0kB audio:1450kB subtitle:0kB other streams:0kB global headers:0kB muxing overhead: 1.099787%
[aac @ 0x5579e3436fa0] Qavg: 707.200
